<?xml version="1.0" encoding="iso-8859-1"?>
<!-- Generator: Adobe Illustrator 19.0.0, SVG Export Plug-In . SVG Version: 6.00 Build 0)  -->
<svg version="1.1" id="Layer_1" xmlns="http://www.w3.org/2000/svg" xmlns:xlink="http://www.w3.org/1999/xlink" x="0px" y="0px"
	 viewBox="0 0 512 512" style="enable-background:new 0 0 512 512;" xml:space="preserve">
<g>
	<g>
		<path d="M446.447,0H104.434c-27.063,0-49.08,22.017-49.08,49.08V462.92c0,27.063,22.017,49.08,49.08,49.08h342.013
			c5.632,0,10.199-4.567,10.199-10.199V10.199C456.646,4.567,452.079,0,446.447,0z M118.617,491.602h-14.183
			c-15.815,0-28.681-12.866-28.681-28.681V49.08c0-15.815,12.866-28.681,28.681-28.681h14.183V491.602z M139.015,491.602V20.398
			h297.231v471.203H139.015z"/>
	</g>
</g>
<g>
	<g>
		<path d="M396.71,170.208h-29.591c-34.744,0-64.96,19.743-80.031,48.595c-15.071-28.853-45.287-48.595-80.032-48.595h-29.59
			c-5.633,0-10.199,4.567-10.199,10.199v29.59c0,49.755,40.478,90.231,90.231,90.231h19.391v43.264
			c0,5.632,4.567,10.199,10.199,10.199s10.199-4.567,10.199-10.199v-43.264h19.391c49.754,0,90.231-40.478,90.231-90.231v-29.59
			C406.909,174.776,402.342,170.208,396.71,170.208z M276.889,265.406l-57.656-57.655c-3.983-3.982-10.441-3.982-14.424,0
			c-3.983,3.983-3.983,10.441,0,14.425l57.656,57.655h-4.967c-38.506,0-69.833-31.327-69.833-69.833v-19.39h19.391
			c38.506,0,69.833,31.327,69.833,69.832V265.406z M386.51,209.999c0,38.506-31.327,69.833-69.833,69.833h-4.967l29.526-29.526
			c3.983-3.983,3.983-10.441,0-14.425c-3.984-3.982-10.44-3.982-14.425,0l-29.525,29.525v-4.966
			c0-38.505,31.327-69.832,69.832-69.832h19.392V209.999z"/>
	</g>
</g>
<g>
	<g>
		<path d="M367.177,210.42c-3.984-3.982-10.44-3.982-14.425,0l-3.007,3.007c-3.983,3.983-3.983,10.441,0,14.425
			c1.993,1.992,4.603,2.987,7.213,2.987c2.611,0,5.22-0.996,7.212-2.987l3.007-3.007C371.16,220.862,371.16,214.404,367.177,210.42z
			"/>
	</g>
</g>
<g>
</g>
<g>
</g>
<g>
</g>
<g>
</g>
<g>
</g>
<g>
</g>
<g>
</g>
<g>
</g>
<g>
</g>
<g>
</g>
<g>
</g>
<g>
</g>
<g>
</g>
<g>
</g>
<g>
</g>
</svg>
