<?xml version="1.0" encoding="iso-8859-1"?>
<!-- Generator: Adobe Illustrator 19.0.0, SVG Export Plug-In . SVG Version: 6.00 Build 0)  -->
<svg version="1.1" id="Capa_1" xmlns="http://www.w3.org/2000/svg" xmlns:xlink="http://www.w3.org/1999/xlink" x="0px" y="0px"
	 viewBox="0 0 512.004 512.004" style="enable-background:new 0 0 512.004 512.004;" xml:space="preserve">
<g>
	<g>
		<path d="M442.444,130.878c-4.852-4.201-12.207-3.689-16.407,1.164c-4.212,4.852-3.689,12.195,1.164,16.419
			c9.938,8.634,14.988,17.408,14.988,26.089c0,33.024-76.463,69.818-186.182,69.818c-62.639,0-121.123-12.439-156.439-33.28
			c-5.516-3.258-12.66-1.42-15.93,4.108c-3.258,5.539-1.42,12.672,4.119,15.942c38.726,22.854,101.62,36.503,168.25,36.503
			c119.412,0,209.455-40.017,209.455-93.091C465.461,159.05,457.501,143.946,442.444,130.878z"/>
	</g>
</g>
<g>
	<g>
		<path d="M510.54,52.531c-3.119-5.609-10.205-7.645-15.814-4.515l-100.55,55.866c-37.946-14.429-86.691-22.423-138.17-22.423
			c-51.491,0-100.224,7.994-138.159,22.423L17.298,48.016c-5.62-3.13-12.695-1.094-15.825,4.515
			c-3.13,5.62-1.105,12.707,4.527,15.825l191.872,106.589c0.209,12.66,10.508,22.877,23.226,22.877
			c12.846,0,23.273-10.426,23.273-23.273s-10.415-23.273-23.273-23.273c-4.364,0-8.39,1.28-11.881,3.363l-63.814-35.456
			c32.047-9.332,70.319-14.452,110.604-14.452s78.545,5.108,110.604,14.452l-63.814,35.456c-3.491-2.083-7.517-3.363-11.881-3.363
			c-12.847,0-23.273,10.426-23.273,23.273s10.415,23.273,23.273,23.273c12.719,0,23.017-10.217,23.226-22.877L506.013,68.356
			C511.634,65.238,513.658,58.151,510.54,52.531z"/>
	</g>
</g>
<g>
	<g>
		<path d="M453.824,232.731c-6.435,0-11.636,5.213-11.636,11.636v128c0,33.024-76.463,69.818-186.182,69.818
			S69.824,405.392,69.824,372.368V174.55c0-8.692,5.062-17.478,15.023-26.112c4.852-4.212,5.376-11.567,1.175-16.419
			c-4.224-4.876-11.567-5.364-16.419-1.175c-15.081,13.079-23.052,28.195-23.052,43.706v197.818
			c0,53.073,90.042,93.091,209.455,93.091s209.455-40.017,209.455-93.091v-128C465.461,237.944,460.259,232.731,453.824,232.731z"/>
	</g>
</g>
<g>
	<g>
		<path d="M428.899,354.739l-48.873-81.455c-3.293-5.516-10.449-7.296-15.965-3.991c-5.516,3.305-7.296,10.449-3.991,15.965
			l48.873,81.455c2.176,3.642,6.028,5.655,9.984,5.655c2.036,0,4.108-0.535,5.981-1.664
			C430.423,367.399,432.204,360.254,428.899,354.739z"/>
	</g>
</g>
<g>
	<g>
		<path d="M331.724,280.208c-5.853-2.479-12.753,0.244-15.255,6.179L267.2,402.75c-2.502,5.923,0.256,12.753,6.179,15.255
			c1.478,0.617,3.014,0.919,4.538,0.919c4.527,0,8.844-2.665,10.717-7.098l49.268-116.364
			C340.405,289.54,337.647,282.71,331.724,280.208z"/>
	</g>
</g>
<g>
	<g>
		<path d="M244.835,402.785l-49.303-116.422c-2.513-5.935-9.391-8.669-15.255-6.179c-5.923,2.502-8.681,9.332-6.179,15.255
			l49.303,116.422c1.873,4.445,6.191,7.11,10.717,7.11c1.524,0,3.06-0.303,4.538-0.931
			C244.579,415.539,247.337,408.708,244.835,402.785z"/>
	</g>
</g>
<g>
	<g>
		<path d="M147.951,269.304c-5.527-3.316-12.66-1.524-15.965,3.991L83.113,354.75c-3.293,5.504-1.513,12.649,4.003,15.965
			c1.873,1.117,3.933,1.652,5.969,1.652c3.956,0,7.808-2.013,9.984-5.644l48.873-81.455
			C155.247,279.754,153.466,272.609,147.951,269.304z"/>
	</g>
</g>
<g>
</g>
<g>
</g>
<g>
</g>
<g>
</g>
<g>
</g>
<g>
</g>
<g>
</g>
<g>
</g>
<g>
</g>
<g>
</g>
<g>
</g>
<g>
</g>
<g>
</g>
<g>
</g>
<g>
</g>
</svg>
