<?xml version="1.0" encoding="iso-8859-1"?>
<!-- Generator: Adobe Illustrator 19.0.0, SVG Export Plug-In . SVG Version: 6.00 Build 0)  -->
<svg version="1.1" id="Layer_1" xmlns="http://www.w3.org/2000/svg" xmlns:xlink="http://www.w3.org/1999/xlink" x="0px" y="0px"
	 viewBox="0 0 512 512" style="enable-background:new 0 0 512 512;" xml:space="preserve">
<g>
	<g>
		<path d="M473.007,0H38.993c-5.523,0-10,4.477-10,10v492c0,5.523,4.477,10,10,10h434.014c5.523,0,10-4.477,10-10V10
			C483.007,4.477,478.53,0,473.007,0z M463.007,492H48.993V20h414.014V492z"/>
	</g>
</g>
<g>
	<g>
		<path d="M148.983,35.011h-0.131c-5.523,0-10,4.477-10,10v0.001c0.001,5.522,4.478,9.999,10,9.999h0.131
			c5.523,0,9.999-4.477,10-9.999v-0.001C158.983,39.488,154.506,35.011,148.983,35.011z"/>
	</g>
</g>
<g>
	<g>
		<path d="M437.983,35.012H183.34c-5.523,0-10,4.477-10,10c0,5.523,4.477,10,10,10h244.643v401.904h-5.088
			c-0.973-33.776-6.973-59.624-17.88-76.92c-9.231-14.639-22.198-23.534-37.862-26.151v-131.1c0-34.938-9.269-61.15-27.55-77.911
			c-17.408-15.96-42.237-22.663-73.802-19.917c-0.193,0.017-0.385,0.039-0.577,0.067c-22.085,3.221-37.194,10.696-47.32,18.353
			c-4.069,1.828-8.404,4.146-12.736,7.084c-15.794,10.715-34.621,31.828-34.621,71.56v128.097
			c-9.187,7.595-19.145,16.578-29.794,27.226c-0.025,0.025-0.05,0.05-0.075,0.075c-0.046,0.047-0.092,0.095-0.137,0.142
			c-30.709,32.199-45.918,65.287-51.474,79.394h-5.052V55.012H114.5c5.523,0,10-4.477,10-10c0-5.523-4.477-10-10-10H74.017
			c-5.523,0-10,4.477-10,10v421.904c0,5.523,4.477,10.001,10,10.001h22.049h316.973h24.944c5.523,0,10-4.477,10-10V45.012
			C447.983,39.489,443.506,35.012,437.983,35.012z M267.824,144.819c25.604-2.178,45.208,2.787,58.264,14.758
			c13.978,12.815,21.065,34.068,21.065,63.168v130.854c-30.276,0.449-42.274-14-45.49-18.968V224.602
			c0-28.079-6.402-49.473-19.028-63.588c-6.891-7.705-14.679-12.259-22.202-14.86C262.774,145.651,265.236,145.202,267.824,144.819z
			 M213.267,179.122C220.9,168.725,230.755,163,241.018,163c25.858,0,40.245,21.305,40.628,60.02
			c-0.19,15.919-4.738,30.739-12.876,41.824c-7.633,10.396-17.489,16.123-27.751,16.123c-10.262,0-20.118-5.726-27.751-16.123
			c-8.315-11.326-12.895-26.548-12.895-42.861S204.952,190.448,213.267,179.122z M190.549,265.935
			c1.943,3.793,4.137,7.395,6.596,10.744c9.176,12.498,20.955,20.498,33.873,23.227v12.377c-8.056,3.039-21.944,9.47-40.469,22.485
			V265.935z M243.07,329.35c4.631-0.971,7.947-5.055,7.947-9.787v-19.657c11.454-2.42,22.004-9.001,30.646-19.174v56.514
			c0,1.417,0.301,2.817,0.883,4.108c0.422,0.937,6.893,14.702,25.061,23.947c-16.979,8.834-33.206,22.466-48.917,41.056
			c-46.957,5.406-78.964-1.538-97.401-21.18C211.397,336.993,242.824,329.407,243.07,329.35z M110.789,456.916
			c5.957-13.288,17.471-35.073,36.673-57.274c12.929,13.35,30.676,22.085,52.932,26.024c18.342,3.248,39.508,3.266,64.708,0.059
			c2.539-0.323,4.856-1.607,6.477-3.587c24.109-29.468,48.973-45.424,75.721-48.544c3.242-0.046,6.634-0.229,10.179-0.571
			c28.561,0.215,43.823,28.418,45.42,83.893H110.789z"/>
	</g>
</g>
<g>
</g>
<g>
</g>
<g>
</g>
<g>
</g>
<g>
</g>
<g>
</g>
<g>
</g>
<g>
</g>
<g>
</g>
<g>
</g>
<g>
</g>
<g>
</g>
<g>
</g>
<g>
</g>
<g>
</g>
</svg>
