<?xml version="1.0" encoding="iso-8859-1"?>
<!-- Generator: Adobe Illustrator 19.0.0, SVG Export Plug-In . SVG Version: 6.00 Build 0)  -->
<svg version="1.1" id="Capa_1" xmlns="http://www.w3.org/2000/svg" xmlns:xlink="http://www.w3.org/1999/xlink" x="0px" y="0px"
	 viewBox="0 0 512.006 512.006" style="enable-background:new 0 0 512.006 512.006;" xml:space="preserve">
<g>
	<g>
		<path d="M475.689,0.003c-9.565,0-18.921,3.875-25.681,10.636l-32.093,32.093c-6.865,6.854-10.636,15.977-10.636,25.681
			c0,5.76,1.478,11.148,3.875,15.988L306.706,188.85l-14.801-12.474c-22.691-18.048-43.311-25.996-64.175-25.018
			c-35.549,1.408-57.356,26.996-78.452,51.759c-4.317,5.073-8.704,10.228-13.289,15.36c-7.18,8.052-16.221,14.417-26.124,18.409
			l-3.375,1.35C78.529,249.429,12.329,281.08,1.694,332.966c-7.633,37.178,10.484,77.091,55.389,121.972
			c38.412,38.4,72.879,57.065,105.379,57.065c5.585,0,11.183-0.57,16.605-1.687c51.898-10.647,83.526-76.847,94.801-105.041
			c4.817-12.055,12.591-23.028,22.447-31.709c4.259-3.759,8.471-7.343,12.614-10.88c24.751-21.073,50.339-42.868,51.747-78.383
			c0.652-15.791-3.665-31.244-13.196-47.22c-3.293-5.516-10.426-7.331-15.953-4.038c-5.527,3.293-7.331,10.426-4.049,15.953
			c7.238,12.137,10.403,23.052,9.937,34.362c-1.001,25.344-20.736,42.147-43.59,61.591c-4.236,3.619-8.529,7.273-12.905,11.136
			c-12.579,11.089-22.493,25.1-28.765,40.75c-15.744,39.343-44.428,83.828-77.789,90.671
			c-29.068,5.993-61.777-10.007-100.829-49.036c-38.947-38.935-54.97-71.924-49.047-100.841
			c6.842-33.338,51.316-62.057,90.612-77.789l3.456-1.385c13.219-5.318,25.251-13.789,34.793-24.506
			c4.689-5.271,9.216-10.554,13.638-15.756c19.479-22.854,36.294-42.589,61.731-43.602c15.348-0.721,30.417,5.446,48.442,19.77
			l13.033,10.985l-45.591,45.591c-6.924-4.073-14.895-6.575-23.494-6.575c-25.67,0-46.545,20.876-46.545,46.545
			c0,25.67,20.876,46.545,46.545,46.545s46.545-20.876,46.545-46.545c0-8.611-2.502-16.57-6.598-23.494l166.551-166.563
			c4.852,2.397,10.228,3.875,15.988,3.875c9.565,0,18.921-3.875,25.682-10.636l32.093-32.093
			c6.865-6.854,10.636-15.977,10.636-25.681C512.006,16.294,495.716,0.003,475.689,0.003z M221.109,314.185
			c-12.835,0-23.273-10.438-23.273-23.273c0-12.835,10.438-23.273,23.273-23.273s23.273,10.438,23.273,23.273
			C244.382,303.747,233.932,314.185,221.109,314.185z M484.917,45.548l-32.093,32.093c-2.432,2.42-5.795,3.817-9.228,3.817
			c-7.191,0-13.044-5.853-13.044-13.044c0-3.491,1.35-6.761,3.817-9.228l32.093-32.093c2.432-2.42,5.795-3.817,9.228-3.817
			c7.191,0,13.044,5.853,13.044,13.044C488.734,39.811,487.384,43.081,484.917,45.548z"/>
	</g>
</g>
<g>
	<g>
		<path d="M194.427,340.867c-4.55-4.55-11.904-4.55-16.454,0l-38.319,38.319l-6.819-6.819l38.319-38.319
			c4.55-4.55,4.55-11.904,0-16.454s-11.904-4.55-16.454,0l-38.319,38.319l-3.409-3.409c-4.55-4.55-11.904-4.55-16.454,0
			c-4.55,4.55-4.55,11.904,0,16.454l46.545,46.545c2.269,2.269,5.248,3.409,8.227,3.409c2.979,0,5.958-1.14,8.227-3.409
			c4.55-4.55,4.55-11.904,0-16.454l-3.409-3.409l38.319-38.319C198.965,352.771,198.965,345.417,194.427,340.867z"/>
	</g>
</g>
<g>
</g>
<g>
</g>
<g>
</g>
<g>
</g>
<g>
</g>
<g>
</g>
<g>
</g>
<g>
</g>
<g>
</g>
<g>
</g>
<g>
</g>
<g>
</g>
<g>
</g>
<g>
</g>
<g>
</g>
</svg>
