<?xml version="1.0" encoding="iso-8859-1"?>
<!-- Generator: Adobe Illustrator 19.0.0, SVG Export Plug-In . SVG Version: 6.00 Build 0)  -->
<svg version="1.1" id="Layer_1" xmlns="http://www.w3.org/2000/svg" xmlns:xlink="http://www.w3.org/1999/xlink" x="0px" y="0px"
	 viewBox="0 0 512 512" style="enable-background:new 0 0 512 512;" xml:space="preserve">
<g>
	<g>
		<path d="M298.52,98.064c-3.372-0.467-6.743-0.945-10.114-1.431c-4.156-0.599-8.01,2.285-8.611,6.442
			c-0.598,4.157,2.286,8.012,6.443,8.611c3.398,0.49,6.796,0.971,10.194,1.442c0.355,0.05,7.556,1.101,8.575-6.488
			C305.567,102.478,302.68,98.641,298.52,98.064z"/>
	</g>
</g>
<g>
	<g>
		<path d="M502.481,103.757c-6.513-5.275-15.631-7.159-25.027-5.161c-56.3,12.08-111.304,7.917-157.682,2.25
			c-4.17-0.506-7.961,2.459-8.47,6.626c-0.509,4.169,2.458,7.961,6.626,8.47c4.35,0.531,8.776,1.049,13.27,1.543v268.797
			c0,4.199,3.405,7.604,7.604,7.604s7.604-3.405,7.604-7.604V119.021c41.03,3.755,87.006,4.58,134.224-5.552
			c4.874-1.036,9.349-0.268,12.28,2.107c2.54,2.056,3.882,5.262,3.882,9.271v262.309c0,10.643-9.21,22.292-19.338,24.444
			c-72.991,15.662-147.888,4.336-220.318-6.615c-25.191-3.809-50.675-7.661-76.328-10.438V96.851
			c24.855,2.73,49.597,6.467,74.057,10.167l8.696,1.313c4.15,0.621,8.026-2.234,8.652-6.386c0.626-4.153-2.234-8.027-6.386-8.652
			l-8.688-1.312C183.358,80.824,107.065,69.287,31.37,85.53C14.365,89.143,0,107.148,0,124.845v262.31
			c0,8.628,3.38,16.117,9.518,21.087c6.514,5.276,15.631,7.157,25.028,5.162c72.992-15.662,147.887-4.336,220.317,6.615
			c47.451,7.175,95.932,14.507,144.632,14.506c27.024,0,54.122-2.259,81.135-8.055C497.634,422.859,512,404.854,512,387.155v-262.31
			C512,116.217,508.62,108.728,502.481,103.757z M165.6,393.036c-44.524-3.997-89.48-4.105-134.23,5.496
			c-4.873,1.036-9.349,0.268-12.281-2.107c-2.539-2.056-3.881-5.261-3.881-9.27v-262.31c0-10.642,9.21-22.292,19.337-24.444
			c43.318-9.295,87.308-9.084,131.055-5.088V393.036z"/>
	</g>
</g>
<g>
	<g>
		<path d="M314.681,267.586c-3.659-2.063-8.296-0.772-10.36,2.885c-9.847,17.449-28.361,28.288-48.319,28.288
			c-20.199,0-38.822-11.033-48.601-28.795c-2.025-3.679-6.649-5.022-10.328-2.994c-3.678,2.026-5.02,6.65-2.994,10.328
			c12.453,22.618,36.181,36.668,61.924,36.668c25.436,0,49.025-13.802,61.564-36.022C319.63,274.287,318.338,269.65,314.681,267.586
			z"/>
	</g>
</g>
<g>
	<g>
		<path d="M256.003,198.034c-24.975,0-45.294,20.319-45.294,45.293s20.319,45.293,45.294,45.293s45.293-20.319,45.293-45.293
			C301.296,218.353,280.978,198.034,256.003,198.034z M256.003,273.412c-16.59,0-30.086-13.497-30.086-30.085
			s13.497-30.085,30.086-30.085c16.59,0,30.085,13.497,30.085,30.085C286.088,259.916,272.592,273.412,256.003,273.412z"/>
	</g>
</g>
<g>
</g>
<g>
</g>
<g>
</g>
<g>
</g>
<g>
</g>
<g>
</g>
<g>
</g>
<g>
</g>
<g>
</g>
<g>
</g>
<g>
</g>
<g>
</g>
<g>
</g>
<g>
</g>
<g>
</g>
</svg>
