<?xml version="1.0" encoding="iso-8859-1"?>
<!-- Generator: Adobe Illustrator 19.0.0, SVG Export Plug-In . SVG Version: 6.00 Build 0)  -->
<svg version="1.1" id="Capa_1" xmlns="http://www.w3.org/2000/svg" xmlns:xlink="http://www.w3.org/1999/xlink" x="0px" y="0px"
	 viewBox="0 0 512 512" style="enable-background:new 0 0 512 512;" xml:space="preserve">
<g>
	<g>
		<path d="M444.73,0c-2.63,0-5.248,0.326-7.843,0.966L177.699,65.757c-15.546,3.898-26.426,17.827-26.426,33.873v342.551
			c0,25.67-20.876,46.545-46.545,46.545c-25.67,0-46.545-20.876-46.545-46.545c0-25.67,20.876-46.545,46.545-46.545
			c3.13,0,6.272,0.314,9.332,0.931c6.295,1.292,12.428-2.793,13.719-9.1c1.268-6.295-2.804-12.439-9.1-13.708
			c-4.585-0.919-9.274-1.396-13.952-1.396c-38.505,0-69.818,31.313-69.818,69.818S66.223,512,104.727,512
			c38.505,0,69.818-31.313,69.818-69.818V99.631c0-5.341,3.631-9.996,8.809-11.287l259.153-64.78
			c5.772-1.443,11.311,3.049,11.311,8.797v51.852l-247.424,67.479c-6.202,1.699-9.868,8.087-8.169,14.289
			c1.408,5.167,6.109,8.564,11.217,8.564c1.024,0,2.048-0.14,3.072-0.419l241.303-65.804v264.041
			c0,25.67-20.876,46.545-46.545,46.545c-25.67,0-46.545-20.876-46.545-46.545s20.876-46.545,46.545-46.545
			c3.13,0,6.272,0.314,9.332,0.931c6.26,1.303,12.428-2.804,13.719-9.1c1.268-6.295-2.804-12.439-9.1-13.708
			c-4.585-0.919-9.274-1.396-13.952-1.396c-38.505,0-69.818,31.313-69.818,69.818s31.313,69.818,69.818,69.818
			c38.505,0,69.818-31.313,69.818-69.818V32.361C477.091,14.522,462.569,0,444.73,0z"/>
	</g>
</g>
<g>
</g>
<g>
</g>
<g>
</g>
<g>
</g>
<g>
</g>
<g>
</g>
<g>
</g>
<g>
</g>
<g>
</g>
<g>
</g>
<g>
</g>
<g>
</g>
<g>
</g>
<g>
</g>
<g>
</g>
</svg>
