<?xml version="1.0" encoding="iso-8859-1"?>
<!-- Generator: Adobe Illustrator 19.0.0, SVG Export Plug-In . SVG Version: 6.00 Build 0)  -->
<svg version="1.1" id="Capa_1" xmlns="http://www.w3.org/2000/svg" xmlns:xlink="http://www.w3.org/1999/xlink" x="0px" y="0px"
	 viewBox="0 0 511.998 511.998" style="enable-background:new 0 0 511.998 511.998;" xml:space="preserve">
<g>
	<g>
		<path d="M499.115,160.735L340.577,2.198c-2.932-2.93-7.685-2.932-10.616,0l-22.649,22.648c-2.891,2.891-2.891,7.725-0.001,10.617
			l21.112,21.112c1.438,7.696,5.239,41.229-23.352,94.102c-1.972,3.647-0.614,8.202,3.033,10.174
			c3.648,1.974,8.202,0.614,10.174-3.033c20.433-37.789,25.52-67.011,26.066-85.321l95.793,95.792
			c-18.31,0.547-47.532,5.633-85.321,26.066c-31.138,16.838-61.866,40.696-109.594,85.096c-0.066,0.062-0.131,0.124-0.195,0.188
			l-39.987,39.987l-12.032-12.031l39.989-39.989c0.063-0.064,0.126-0.129,0.188-0.195c32.542-34.981,53.016-59.603,68.461-82.326
			c2.33-3.429,1.439-8.097-1.989-10.429c-3.43-2.329-8.097-1.439-10.429,1.989c-14.78,21.744-35.429,46.556-66.945,80.44
			l-39.893,39.892l-11.678-11.678c-2.933-2.931-7.685-2.931-10.617,0l-6.016,6.016l-6.369-6.369l6.016-6.016
			c2.892-2.893,2.893-7.725,0-10.617c-2.892-2.892-7.725-2.891-10.617,0l-22.648,22.648c-2.733,2.734-2.915,7.248-0.398,10.186
			c2.807,3.279,7.962,3.482,11.016,0.431l6.016-6.016l6.369,6.369l-6.016,6.016c-2.932,2.933-2.932,7.685,0,10.617l11.678,11.678
			l-17.693,17.693l-11.678-11.678c-2.892-2.89-7.725-2.89-10.617,0l-6.016,6.016l-6.369-6.369l6.016-6.016
			c2.932-2.933,2.932-7.685,0-10.617c-2.933-2.931-7.685-2.931-10.617,0l-22.651,22.649c-2.932,2.933-2.932,7.685,0,10.617
			c2.893,2.892,7.724,2.892,10.617,0l6.016-6.016l6.369,6.369l-6.016,6.016c-2.89,2.892-2.89,7.725,0,10.617l11.678,11.678
			l-46.002,46.003l-6.017-6.017c-2.892-2.89-7.726-2.89-10.617,0.001L12.883,443.84c-2.932,2.932-2.932,7.684,0,10.616
			l45.297,45.297c2.892,2.89,7.726,2.89,10.617-0.001l22.648-22.649c2.932-2.932,2.932-7.684,0-10.616l-6.016-6.016l17.132-17.132
			c-0.037,13.248,4.985,26.509,15.071,36.596l16.986,16.986c9.724,9.723,22.668,15.077,36.451,15.077s26.727-5.355,36.45-15.077
			l90.594-90.594c20.098-20.099,20.098-52.801,0-72.899l-16.987-16.987c-10.086-10.085-23.348-15.107-36.597-15.069l11.022-11.022
			c46.661-43.399,76.506-66.617,106.41-82.787c52.416-28.343,86.42-24.691,94.128-23.327l9.763,9.763
			c2.893,2.892,7.724,2.892,10.617,0l22.648-22.648C502.047,168.421,502.047,163.668,499.115,160.735z M165.407,301.226
			l68.652,68.653l-12.032,12.032l-68.652-68.653L165.407,301.226z M188.76,369.879l-17.693,17.693l-6.368-6.368l17.693-17.693
			L188.76,369.879z M159.743,340.862l12.031,12.032l-17.693,17.693l-12.031-12.032L159.743,340.862z M114.446,352.186l68.653,68.652
			l-12.032,12.032l-68.653-68.652L114.446,352.186z M63.488,483.829l-34.68-34.68l12.032-12.032l34.68,34.68L63.488,483.829z
			 M74.812,449.856l-12.031-12.031l46.004-46.004l12.032,12.031l-3.185,3.184c-0.006,0.006-0.012,0.013-0.019,0.02L74.812,449.856z
			 M270.508,327.06l16.987,16.987c14.244,14.243,14.244,37.422,0,51.666l-90.594,90.594c-6.886,6.887-16.061,10.68-25.833,10.68
			s-18.946-3.793-25.835-10.681l-16.986-16.985c-14.232-14.233-14.243-37.384-0.036-51.63l3.222-3.221l6.369,6.369l-3.185,3.185
			c-10.731,10.732-10.732,28.194,0,38.928l16.988,16.987c5.366,5.365,12.414,8.048,19.463,8.048s14.097-2.683,19.463-8.048
			l58.697-58.698c2.932-2.933,2.932-7.685,0-10.617c-2.935-2.932-7.687-2.931-10.617,0l-58.697,58.698
			c-4.878,4.88-12.816,4.88-17.693,0l-16.987-16.986c-4.879-4.878-4.879-12.817,0-17.695l3.184-3.185l17.34,17.34
			c2.893,2.892,7.724,2.892,10.617,0l22.648-22.648c2.932-2.933,2.932-7.685,0-10.617l-17.34-17.34l17.693-17.693l17.34,17.34
			c2.892,2.89,7.725,2.89,10.617,0l22.649-22.649c2.89-2.892,2.89-7.725,0-10.617l-17.34-17.34c2.087-2.087,4.074-4.455,6.805-5.708
			c4.702-2.157,10.418-1.132,14.073,2.524l16.989,16.986c4.815,4.815,4.815,12.878,0,17.693l-13.129,13.128
			c-2.734,2.733-2.916,7.248-0.399,10.185c2.807,3.278,7.961,3.485,11.015,0.431l13.13-13.128c8.1-8.1,10.337-20.778,5.465-31.16
			c-1.352-2.883-3.215-5.517-5.465-7.767l-16.987-16.986c-8.101-8.1-20.777-10.339-31.16-5.467
			c-2.883,1.352-5.517,3.215-7.767,5.466l-3.185,3.185l-6.37-6.37l3.2-3.2C233.104,312.817,256.269,312.82,270.508,327.06z
			 M471.158,178.077L323.236,30.154l12.032-12.032l147.922,147.922L471.158,178.077z"/>
	</g>
</g>
<g>
</g>
<g>
</g>
<g>
</g>
<g>
</g>
<g>
</g>
<g>
</g>
<g>
</g>
<g>
</g>
<g>
</g>
<g>
</g>
<g>
</g>
<g>
</g>
<g>
</g>
<g>
</g>
<g>
</g>
</svg>
